<svg xmlns="http://www.w3.org/2000/svg" xml:space="preserve" id="Layer_2_00000003096303151294752410000012657108750181060275_" width="200" height="68" x="0" y="0" viewBox="0 0 200 68"><path d="M200 68.4c-.1 2.1-1.9 3.7-3.9 3.6H3.9c-2 .1-3.8-1.5-3.9-3.6V1.6C.1-.5 1.9-2.1 3.9-2H196c2-.1 3.8 1.5 3.9 3.6v66.8z" style="fill:#3b5998"/><path d="M90.5 14.2h2v16h-1.9V17.9L87.1 26h-1.9l-3.5-8.1v12.3h-1.9v-16h2l4.4 9.8zm14.2 16H103l-.1-1c-1.1.8-2.4 1.2-3.8 1.3-2.6 0-3.6-1.5-3.6-3.7s1.2-3.6 3.7-3.6c1.2 0 2.4.2 3.5.7v-1.8c0-1.5-.5-2.2-2.3-2.2-1.1 0-2.1.2-3.2.5l-.2-1.9c1.2-.4 2.4-.5 3.6-.5 2.8 0 4.1 1.2 4.1 3.8zm-2-5c-1-.3-2.1-.5-3.2-.5-1.6 0-2 .8-2 2.1S98 29 99.4 29c1.2 0 2.3-.4 3.3-1.1zm11.1-5.2c-1.3.2-2.6.7-3.8 1.3v9h-2v-12h1.7l.2 1.4c1-.9 2.3-1.5 3.6-1.6zm2.1 10.2v-17h2.1v10.6l4.1-5.5h2.4l-4.6 5.9 4.8 6h-2.4l-4.3-5.7v5.7zm12-5.1c.1 2.5.8 3.7 3.2 3.7 1.2 0 2.4-.2 3.5-.7l.3 1.5c-1.2.5-2.5.7-3.8.7-4.3 0-5.2-3-5.2-6.3s1.1-6.1 4.8-6.1c3.3 0 4.6 2.3 4.6 5.1v2h-7.4zm0-1.6h5.4v-.4c0-2.2-.7-3.6-2.7-3.6-2.2.1-2.7 1.7-2.7 4m16.4 6.6c-.8.2-1.6.4-2.5.4-2 0-2.9-1.1-2.9-3v-7.6h-2.1v-1.6h2.1v-2.9l2-.3v3.2h3.4l-.2 1.6h-3.2v7.5c0 1.1.3 1.5 1.4 1.5.6 0 1.2-.1 1.8-.2zm3.5-16.7c.7 0 1.3.6 1.4 1.3v.1c0 .7-.5 1.3-1.2 1.4h-.1c-.7 0-1.3-.5-1.4-1.3v-.1c-.1-.8.5-1.4 1.3-1.4q-.15 0 0 0m-1 4.9h2v12h-2zm12.6 11.9v-8.7c0-1.1-.5-1.6-1.6-1.6-1.2 0-2.3.3-3.4.8v9.6h-2v-12h1.6l.2 1.1c1.2-.8 2.6-1.3 4.1-1.3 2.1 0 3.2 1.1 3.2 3.3v8.9h-2.1zm11.1-11.9h3.8v1.4l-1.6.3c.3.6.5 1.3.5 2 0 2.5-1.7 3.9-4.5 3.9-.4 0-.8 0-1.3-.1-.3.3-.5.7-.5 1.1 0 .6.3.8 1.1.8h2.7c1.7-.1 3.3 1.2 3.4 2.9v.3c0 2.6-2.3 3.8-5.5 3.8s-4.8-1-4.8-3.2c0-1.2.8-2.2 1.9-2.6-.5-.4-.8-1-.8-1.6 0-.9.6-1.7 1.4-2-1.3-.6-2.1-2-2-3.4 0-2.6 1.5-4 4.4-4 .5.1 1.2.2 1.8.4m-3.8 11.1c-.7.5-1 1.2-1.1 2 0 1.4 1.2 1.9 3 1.9 2.1 0 3.4-.5 3.4-2.1.1-.9-.6-1.6-1.5-1.7h-2.9c-.3.1-.6 0-.9-.1m2-9.9c-1.7 0-2.5.7-2.5 2.5-.2 1.2.7 2.3 1.9 2.5h.7c1.2.2 2.4-.7 2.6-1.9V22c-.2-1.7-1.1-2.5-2.7-2.5M81.9 48.3v6h-2.1v-16h4.8c3.7 0 5.1 2.1 5.1 5s-1.3 5.1-5 5.1h-2.8zm0-1.6h2.6c2.4 0 3.1-1.4 3.1-3.4s-.7-3.4-3.1-3.4h-2.6zm18 7.6h-1.7l-.1-1c-1.1.8-2.4 1.2-3.8 1.2-2.6 0-3.6-1.5-3.6-3.7s1.2-3.6 3.7-3.6c1.2 0 2.4.2 3.5.7V46c0-1.5-.5-2.2-2.3-2.2-1.1 0-2.1.2-3.2.5l-.3-1.7c1.2-.4 2.5-.5 3.7-.5 2.8 0 4.1 1.2 4.1 3.8zm-2-5c-1-.3-2.1-.5-3.2-.5-1.6 0-2 .8-2 2.1 0 1.5.5 2.2 1.9 2.2 1.2 0 2.3-.4 3.3-1.1zm11.1-5.2c-1.3.2-2.6.7-3.7 1.3v9h-2v-12h1.7l.2 1.4c1-.9 2.3-1.4 3.6-1.6zm8.3 10.1c-.8.2-1.6.3-2.5.4-1.4.2-2.8-.9-2.9-2.3V44h-2.1v-1.6h2.1v-2.9l2-.3v3.2h3.4l-.2 1.6h-3.2v7.6c0 1.1.3 1.4 1.4 1.4.6 0 1.2-.1 1.8-.2zm9.5.1v-8.7c0-1.1-.5-1.6-1.6-1.6-1.2 0-2.3.3-3.4.8v9.6h-2v-12h1.6l.2 1.1c1.2-.8 2.6-1.3 4.1-1.3 2.1 0 3.2 1.1 3.2 3.3v8.9h-2.1zm6.7-5.1c.1 2.5.7 3.7 3.2 3.7 1.2 0 2.4-.2 3.5-.7l.3 1.5c-1.2.5-2.5.7-3.9.7-4.3 0-5.2-3-5.2-6.3 0-3.4 1.1-6.1 4.8-6.1 3.2 0 4.6 2.3 4.6 5.1v2zm0-1.6h5.4v-.4c0-2.2-.7-3.6-2.7-3.6-2.2.1-2.7 1.7-2.7 4m16-3.5c-1.3.3-2.6.7-3.7 1.3v9h-2v-12h1.7l.2 1.4c1-.9 2.3-1.4 3.6-1.6zM65.9 11.6H26.6c-1.3 0-2.4 1.1-2.4 2.4v39.3c0 1.3 1.1 2.4 2.4 2.4h21.2v-17H42V32h5.8v-4.9c0-5.7 3.5-8.8 8.6-8.8 1.7 0 3.4.1 5.2.3v6h-3.5c-2.8 0-3.3 1.3-3.3 3.3v4.3h6.6l-.9 6.7h-5.8V56H66c1.3 0 2.4-1.1 2.4-2.4V14.1c0-1.4-1.1-2.5-2.5-2.5.1 0 0 0 0 0" style="fill:#fff"/></svg>